<svg enable-background="new 0 0 286 100" viewBox="0 0 286 100" xmlns="http://www.w3.org/2000/svg"><path d="m175.29 100h-125.29c-27.61 0-50-22.39-50-50 0-27.61 22.39-50 50-50h125.29z" fill="#1c9a9a" opacity=".15"/><path d="m205.45 49.86h7.4v14.2c-1.9 1.43-4.1 2.53-6.6 3.3s-5.02 1.15-7.55 1.15c-3.63 0-6.9-.77-9.8-2.33-2.9-1.55-5.17-3.7-6.83-6.45-1.65-2.75-2.47-5.86-2.47-9.33s.82-6.58 2.47-9.33 3.94-4.9 6.88-6.45c2.93-1.55 6.23-2.33 9.9-2.33 3.07 0 5.85.52 8.35 1.55s4.6 2.53 6.3 4.5l-5.2 4.8c-2.5-2.63-5.52-3.95-9.05-3.95-2.23 0-4.22.47-5.95 1.4s-3.08 2.25-4.05 3.95-1.45 3.65-1.45 5.85c0 2.17.48 4.1 1.45 5.8s2.31 3.03 4.02 3.98c1.72.95 3.67 1.43 5.88 1.43 2.33 0 4.43-.5 6.3-1.5z" fill="#bec1ce"/><path d="m247.45 61.41v6.5h-27.1v-35h26.45v6.5h-18.4v7.6h16.25v6.3h-16.25v8.1z" fill="#bec1ce"/><path d="m286 32.91v35h-6.65l-17.45-21.25v21.25h-8v-35h6.7l17.4 21.25v-21.25z" fill="#bec1ce"/><g fill="#1c9a9a"><path d="m98.95 32.91v35h-6.65l-17.45-21.25v21.25h-8v-35h6.7l17.4 21.25v-21.25z"/><path d="m134.35 61.41v6.5h-27.1v-35h26.45v6.5h-18.4v7.6h16.25v6.3h-16.25v8.1z"/><path d="m162.5 67.91-8.45-12.15-8.3 12.15h-9.3l12.95-17.8-12.3-17.2h9.2l8.05 11.35 7.9-11.35h8.75l-12.2 16.9 13.05 18.1z"/></g></svg>